# xmcd
#
# Track frame offsets:
#	150
#	19566
#	34890
#	52919
#	70716
#	88688
#	107462
#	127576
#	144202
#	163982
#
# Disc length: 2448 seconds
#
# Revision: 1
# Processed by: cddbd v1.5.2PL0 Copyright (c) Steve Scherf et al.
# Submitted via: EZCDAudioConverter 8.0.2.1
#
DISCID=72098e0a
DTITLE=Jimmii J.C. Nguyễn - Tưởng Đã Phôi Pha
DYEAR=2000
DGENRE=
TTITLE0=Tưởng Đã Phôi Pha
TTITLE1=Hoa bằng lăng
TTITLE2=Người đã xa rồi
TTITLE3=Tình xưa nghĩa cũ 3
TTITLE4=Tán tình
TTITLE5=Mưa tuyết
TTITLE6=Người phu xe
TTITLE7=Chiếc nhẫn ngày xưa
TTITLE8=Hãy
TTITLE9=Phố cũ
EXTD=
EXTT0=
EXTT1=
EXTT2=
EXTT3=
EXTT4=
EXTT5=
EXTT6=
EXTT7=
EXTT8=
EXTT9=
PLAYORDER=
